<svg width="51" height="7" viewBox="0 0 51 7" fill="none" xmlns="http://www.w3.org/2000/svg">
<path d="M0.9 7V0.0999994H1.74V6.24H5.1V7H0.9ZM5.9418 6.65V6.24H9.0218C9.47513 6.24 9.7018 6.01333 9.7018 5.56V4.75C9.7018 4.37 9.5318 4.14667 9.1918 4.08L7.0418 3.64C6.30846 3.49333 5.9418 3.00333 5.9418 2.17V1.63C5.9418 0.61 6.4518 0.0999994 7.4718 0.0999994H9.8918L10.3418 0.45V0.86H7.4618C7.00846 0.86 6.7818 1.08667 6.7818 1.54V2.22C6.7818 2.6 6.9518 2.82333 7.2918 2.89L9.4418 3.32C10.1751 3.46667 10.5418 3.96 10.5418 4.8V5.47C10.5418 6.49 10.0318 7 9.0118 7H6.3918L5.9418 6.65ZM12.0426 7V0.0999994H15.3126C16.3326 0.0999994 16.8426 0.61 16.8426 1.63V2.93C16.8426 3.95 16.3326 4.46 15.3126 4.46H12.8826V7H12.0426ZM12.8826 3.7H15.3226C15.7759 3.7 16.0026 3.47333 16.0026 3.02V1.54C16.0026 1.08667 15.7759 0.86 15.3226 0.86H12.8826V3.7ZM18.2814 5.47V0.0999994H19.1214V5.56C19.1214 6.01333 19.3481 6.24 19.8014 6.24H21.9614C22.4147 6.24 22.6414 6.01333 22.6414 5.56V0.0999994H23.4814V5.47C23.4814 6.49 22.9714 7 21.9514 7H19.8114C18.7914 7 18.2814 6.49 18.2814 5.47ZM33.5465 7V0.0999994H38.0465V0.86H34.3865V3H37.7465V3.76H34.3865V6.24H38.0465V7H33.5465ZM39.3449 5.47V1.63C39.3449 0.61 39.8549 0.0999994 40.8749 0.0999994H43.6949L44.1449 0.45V0.86H40.8649C40.4116 0.86 40.1849 1.08667 40.1849 1.54V5.56C40.1849 6.01333 40.4116 6.24 40.8649 6.24H44.1449V6.65L43.6949 7H40.8749C39.8549 7 39.3449 6.49 39.3449 5.47ZM45.5484 7V0.0999994H46.3884V3H49.9084V0.0999994H50.7484V7H49.9084V3.76H46.3884V7H45.5484Z" fill="#147C15"/>
<path d="M26.9685 0.86V0.0999994H32.4085V0.86H30.1085V7H29.2685V0.86H26.9685Z" fill="#057848"/>
</svg>
